<mxfile host="app.diagrams.net" modified="2021-11-30T19:00:26.558Z" agent="5.0 (Windows NT 10.0; Win64; x64) AppleWebKit/537.36 (KHTML, like Gecko) Chrome/96.0.4664.45 Safari/537.36" etag="FeLwLLUnxu-MKgufPrXu" version="15.7.3" type="github">
  <diagram id="9RYfDySSOqti8ctZjYuT" name="Page-1">
    <mxGraphModel dx="1422" dy="798" grid="1" gridSize="10" guides="1" tooltips="1" connect="1" arrows="1" fold="1" page="1" pageScale="1" pageWidth="827" pageHeight="1169" math="0" shadow="0">
      <root>
        <mxCell id="0" />
        <mxCell id="1" parent="0" />
        <mxCell id="BRAwT8A7eTKUAPxj7xPn-9" style="edgeStyle=none;rounded=0;orthogonalLoop=1;jettySize=auto;html=1;exitX=0.5;exitY=1;exitDx=0;exitDy=0;entryX=0.5;entryY=0;entryDx=0;entryDy=0;" edge="1" parent="1" source="BRAwT8A7eTKUAPxj7xPn-1" target="BRAwT8A7eTKUAPxj7xPn-7">
          <mxGeometry relative="1" as="geometry" />
        </mxCell>
        <mxCell id="BRAwT8A7eTKUAPxj7xPn-1" value="Care home Booking" style="whiteSpace=wrap;html=1;aspect=fixed;" vertex="1" parent="1">
          <mxGeometry x="100" y="60" width="130" height="130" as="geometry" />
        </mxCell>
        <mxCell id="BRAwT8A7eTKUAPxj7xPn-2" value="Cool Care Rooms" style="swimlane;fontStyle=0;childLayout=stackLayout;horizontal=1;startSize=30;horizontalStack=0;resizeParent=1;resizeParentMax=0;resizeLast=0;collapsible=1;marginBottom=0;" vertex="1" parent="1">
          <mxGeometry x="520" y="60" width="150" height="120" as="geometry" />
        </mxCell>
        <mxCell id="BRAwT8A7eTKUAPxj7xPn-3" value="Room 1 is free" style="text;strokeColor=none;fillColor=none;align=left;verticalAlign=middle;spacingLeft=4;spacingRight=4;overflow=hidden;points=[[0,0.5],[1,0.5]];portConstraint=eastwest;rotatable=0;" vertex="1" parent="BRAwT8A7eTKUAPxj7xPn-2">
          <mxGeometry y="30" width="150" height="30" as="geometry" />
        </mxCell>
        <mxCell id="BRAwT8A7eTKUAPxj7xPn-4" value="Room 2 is free" style="text;strokeColor=none;fillColor=none;align=left;verticalAlign=middle;spacingLeft=4;spacingRight=4;overflow=hidden;points=[[0,0.5],[1,0.5]];portConstraint=eastwest;rotatable=0;" vertex="1" parent="BRAwT8A7eTKUAPxj7xPn-2">
          <mxGeometry y="60" width="150" height="30" as="geometry" />
        </mxCell>
        <mxCell id="BRAwT8A7eTKUAPxj7xPn-5" value="Room 3 is free" style="text;strokeColor=none;fillColor=none;align=left;verticalAlign=middle;spacingLeft=4;spacingRight=4;overflow=hidden;points=[[0,0.5],[1,0.5]];portConstraint=eastwest;rotatable=0;" vertex="1" parent="BRAwT8A7eTKUAPxj7xPn-2">
          <mxGeometry y="90" width="150" height="30" as="geometry" />
        </mxCell>
        <mxCell id="BRAwT8A7eTKUAPxj7xPn-6" style="edgeStyle=none;rounded=0;orthogonalLoop=1;jettySize=auto;html=1;exitX=0;exitY=0.5;exitDx=0;exitDy=0;entryX=1.008;entryY=0.554;entryDx=0;entryDy=0;entryPerimeter=0;" edge="1" parent="1" source="BRAwT8A7eTKUAPxj7xPn-4" target="BRAwT8A7eTKUAPxj7xPn-1">
          <mxGeometry relative="1" as="geometry" />
        </mxCell>
        <mxCell id="BRAwT8A7eTKUAPxj7xPn-11" style="edgeStyle=none;rounded=0;orthogonalLoop=1;jettySize=auto;html=1;entryX=0.567;entryY=0.017;entryDx=0;entryDy=0;entryPerimeter=0;" edge="1" parent="1" source="BRAwT8A7eTKUAPxj7xPn-7" target="BRAwT8A7eTKUAPxj7xPn-8">
          <mxGeometry relative="1" as="geometry" />
        </mxCell>
        <mxCell id="BRAwT8A7eTKUAPxj7xPn-7" value="Room 1 - Enquiry" style="whiteSpace=wrap;html=1;aspect=fixed;" vertex="1" parent="1">
          <mxGeometry x="105" y="300" width="120" height="120" as="geometry" />
        </mxCell>
        <mxCell id="BRAwT8A7eTKUAPxj7xPn-13" style="edgeStyle=none;rounded=0;orthogonalLoop=1;jettySize=auto;html=1;exitX=0.5;exitY=1;exitDx=0;exitDy=0;entryX=0.5;entryY=0;entryDx=0;entryDy=0;" edge="1" parent="1" source="BRAwT8A7eTKUAPxj7xPn-8" target="BRAwT8A7eTKUAPxj7xPn-12">
          <mxGeometry relative="1" as="geometry" />
        </mxCell>
        <mxCell id="BRAwT8A7eTKUAPxj7xPn-8" value="Approved by manager" style="whiteSpace=wrap;html=1;aspect=fixed;" vertex="1" parent="1">
          <mxGeometry x="100" y="500" width="120" height="120" as="geometry" />
        </mxCell>
        <mxCell id="BRAwT8A7eTKUAPxj7xPn-14" style="edgeStyle=none;rounded=0;orthogonalLoop=1;jettySize=auto;html=1;exitX=1;exitY=0.5;exitDx=0;exitDy=0;" edge="1" parent="1" source="BRAwT8A7eTKUAPxj7xPn-12">
          <mxGeometry relative="1" as="geometry">
            <mxPoint x="500" y="750" as="targetPoint" />
          </mxGeometry>
        </mxCell>
        <mxCell id="BRAwT8A7eTKUAPxj7xPn-12" value="We take the room payment and charge fee" style="whiteSpace=wrap;html=1;aspect=fixed;" vertex="1" parent="1">
          <mxGeometry x="100" y="690" width="120" height="120" as="geometry" />
        </mxCell>
        <mxCell id="BRAwT8A7eTKUAPxj7xPn-16" style="edgeStyle=none;rounded=0;orthogonalLoop=1;jettySize=auto;html=1;exitX=0.5;exitY=0;exitDx=0;exitDy=0;entryX=0.453;entryY=1.033;entryDx=0;entryDy=0;entryPerimeter=0;" edge="1" parent="1" source="BRAwT8A7eTKUAPxj7xPn-15" target="BRAwT8A7eTKUAPxj7xPn-5">
          <mxGeometry relative="1" as="geometry" />
        </mxCell>
        <mxCell id="BRAwT8A7eTKUAPxj7xPn-15" value="Update Cool Care" style="whiteSpace=wrap;html=1;aspect=fixed;" vertex="1" parent="1">
          <mxGeometry x="500" y="690" width="130" height="130" as="geometry" />
        </mxCell>
      </root>
    </mxGraphModel>
  </diagram>
</mxfile>
